# xmcd
#
# Track frame offsets:
#	150
#	16402
#	30725
#	44440
#	60647
#	78745
#	93557
#	107617
#	123670
#	134826
#	148366
#	160806
#	175227
#	185654
#	199917
#	216199
#	227290
#	251563
#
# Disc length: 3369 seconds
#
# Revision: 1
# Processed by: cddbd v1.5.2PL0 Copyright (c) Steve Scherf et al.
# Submitted via: audiograbber 1.83.01
#
DISCID=0e0d2712
DTITLE=Chartbuster Karaoke - Country Hits of the 70's Volume 2
DYEAR=1900
DGENRE=Karaoke
TTITLE0=Loretta Lynn and Conway Twitty - Louisiana Woman, Mississippi Man
TTITLE1=Cal Smith - The Lord Knows I'm Drinkin'
TTITLE2=John Conlee - Lady Lay Down
TTITLE3=Emmylou Harris - Two More bottles of Wine
TTITLE4=Ronnie Milsap - Let's Take the Long Way Around
TTITLE5=Kenny Rogers - Lucille
TTITLE6=Linda Ronstadt - Love is a Rose
TTITLE7=Ronnie Millsap - Nobody likes sad songs
TTITLE8=Kenny Rogers - She Believes in Me
TTITLE9=Linda Ronstadt - Silver Threads and Golden Needles
TTITLE10=Gene Watson - Should I come home (or should I go crazy)
TTITLE11=Jean Shepard - Slippin' Away
TTITLE12=Barbara Fairchild - Teddy Bear Song
TTITLE13=John Denver - Thank God I'm A Country Boy
TTITLE14=Tammy Wynette - Till I can Make it on my own
TTITLE15=Merle Haggard - A Working Man Can't Get Nowhere Today
TTITLE16=Larry Gatlin - All the Gold in California
TTITLE17=Blank
EXTD=
EXTT0=
EXTT1=
EXTT2=
EXTT3=
EXTT4=
EXTT5=
EXTT6=
EXTT7=
EXTT8=
EXTT9=
EXTT10=
EXTT11=
EXTT12=
EXTT13=
EXTT14=
EXTT15=
EXTT16=
EXTT17=
PLAYORDER=
